<svg width="512" height="512" viewBox="0 0 512 512" fill="none" xmlns="http://www.w3.org/2000/svg">
<path d="M256 0C185.333 0 125 25 75 75C25 125 0 185.333 0 256C0 326.667 25 387 75 437C125 487 185.333 512 256 512C326.667 512 387 487 437 437C487 387 512 326.667 512 256C512 185.333 487 125 437 75C387 25 326.667 0 256 0ZM109 331C123 366.333 130 398.333 130 427C103.333 408.333 82.1667 383.833 66.5 353.5C50.8333 323.167 43 290.667 43 256C43 187.333 70 132 124 90C136 99.3333 147 111.5 157 126.5C167 141.5 171.667 155.667 171 169C168.333 189.667 154.667 210 130 230C117.333 243.333 108.833 259.167 104.5 277.5C100.167 295.833 101.667 313.667 109 331ZM469 256C469 314.667 448.167 364.833 406.5 406.5C364.833 448.167 314.667 469 256 469C226.667 469 199 463.333 173 452C176.333 408.667 167.667 363.333 147 316C139.667 293.333 144 275.333 160 262C193.333 228.667 211 199 213 173C217 137 200 100.667 162 64C188 50 219.333 43 256 43C273.333 43 289.667 45 305 49L262 92L247 107L309 169L459 190C465.667 213.333 469 235.333 469 256ZM331 130L307 107L350 64C386.667 81.3333 415.667 108.333 437 145L331 130ZM269 220L252 245C238.667 266.333 237 287.667 247 309L256 329L271 401C273 416.333 282.333 426.333 299 431C301.667 432.333 305 433 309 433C319 433 328.333 429.333 337 422L361 399L363 395C373 357.667 384.333 332.667 397 320C415 307.333 420 284.667 412 252C407.333 234 395 221 375 213L324 192H320C296.667 192 279.667 201.333 269 220ZM288 269L305 243C307.667 237.667 312 235 318 235L361 250C366.333 252.667 369 255.333 369 258C370.333 262.667 371 270.667 371 282C353 295.333 336.667 325.667 322 373L311 384L299 316L286 290C282 284 282.667 277 288 269Z" fill="#85B6FF"/>
</svg>
